<?xml version="1.0" standalone="no"?>
<!DOCTYPE svg PUBLIC "-//W3C//DTD SVG 20010904//EN"
 "http://www.w3.org/TR/2001/REC-SVG-20010904/DTD/svg10.dtd">
<svg version="1.0" xmlns="http://www.w3.org/2000/svg"
 width="259.000000pt" height="194.000000pt" viewBox="0 0 259.000000 194.000000"
 preserveAspectRatio="xMidYMid meet">

<g transform="translate(0.000000,194.000000) scale(0.100000,-0.100000)"
fill="#000000" stroke="none">
<path d="M0 970 l0 -970 1295 0 1295 0 0 970 0 970 -1295 0 -1295 0 0 -970z
m930 330 l0 -140 25 0 c25 0 25 1 25 80 0 90 14 132 54 170 25 23 37 25 132
28 l104 4 0 -141 0 -141 24 0 c24 0 24 2 28 98 2 78 7 102 23 124 36 48 65 58
164 58 l91 0 0 -140 0 -140 30 0 30 0 0 88 c0 147 45 192 193 192 l87 0 0
-140 0 -140 -30 0 -30 0 0 -85 c0 -149 -37 -185 -187 -185 l-93 0 0 135 0 135
-79 0 -79 0 -4 -88 c-7 -148 -54 -192 -206 -192 l-82 0 0 140 0 140 -25 0
c-25 0 -25 -1 -25 -81 0 -94 -16 -138 -64 -172 -27 -19 -44 -22 -126 -22 l-95
0 -3 138 -3 137 -79 0 -80 0 0 90 c0 154 35 190 188 190 l92 0 0 -140z m102
-690 l3 -90 -25 0 c-25 0 -25 0 -23 87 1 49 2 89 3 91 0 1 9 2 19 2 18 0 20
-9 23 -90z m-310 71 c-12 -7 -12 -16 0 -57 l15 -49 13 42 c10 34 11 45 0 58
-11 13 -7 15 31 15 29 0 39 -3 30 -9 -11 -7 -11 -16 4 -56 19 -49 27 -47 40
14 5 24 3 36 -6 42 -10 6 -4 9 19 9 31 0 42 -12 22 -25 -5 -3 -19 -37 -32 -75
-12 -39 -27 -69 -32 -67 -6 2 -20 28 -32 57 l-22 54 -18 -57 c-10 -32 -22 -56
-28 -54 -5 2 -20 34 -33 71 -12 38 -28 75 -34 82 -9 12 -4 14 32 14 28 0 39
-3 31 -9z m228 -4 c0 -8 -3 -17 -7 -20 -9 -9 -34 13 -27 24 8 14 34 11 34 -4z
m640 -14 c0 -26 -15 -31 -24 -8 -7 19 -46 20 -46 1 0 -8 16 -23 35 -35 27 -16
35 -27 35 -49 0 -38 -19 -53 -64 -50 -31 2 -36 6 -36 26 l0 24 18 -23 c12 -14
25 -20 35 -16 27 10 19 40 -16 62 -58 37 -40 97 29 92 28 -2 34 -6 34 -24z
m-628 -130 c8 -10 2 -13 -28 -13 -30 0 -35 3 -26 12 16 16 15 75 0 84 -9 6 -5
10 12 14 24 6 25 3 28 -39 2 -25 8 -51 14 -58z m159 97 c5 0 9 -8 9 -17 0 -13
-3 -14 -12 -5 -7 7 -19 12 -27 12 -10 0 -4 -11 18 -29 30 -24 32 -30 22 -49
-17 -32 -81 -32 -81 0 0 21 1 21 20 3 15 -13 24 -15 31 -8 8 8 4 16 -15 28
-14 10 -26 25 -26 34 0 23 21 43 38 36 8 -3 18 -5 23 -5z m117 -6 c43 -30 20
-104 -33 -104 -53 0 -76 74 -33 104 12 9 27 16 33 16 6 0 21 -7 33 -16z m93 7
c29 15 49 -5 49 -50 0 -20 5 -42 12 -49 9 -9 5 -12 -18 -12 -28 0 -29 1 -26
45 4 40 2 45 -17 45 -17 0 -21 -6 -21 -33 0 -18 5 -38 12 -45 9 -9 3 -12 -27
-11 -22 0 -34 3 -27 6 7 3 12 23 12 49 0 28 -5 44 -12 45 -7 1 -2 4 12 8 14 4
26 4 28 -1 2 -4 13 -3 23 3z m367 -7 c44 -31 17 -104 -39 -104 -28 0 -59 30
-59 58 0 17 45 62 62 62 8 0 24 -7 36 -16z m93 7 c29 15 49 -6 49 -52 0 -21 5
-41 10 -44 6 -3 10 2 10 11 0 16 1 16 18 1 22 -20 32 -21 32 -5 0 7 -12 21
-26 33 -39 31 -15 71 35 58 12 -3 21 -12 21 -21 0 -12 -3 -13 -12 -4 -14 14
-38 16 -38 4 0 -5 11 -14 25 -20 17 -8 25 -20 25 -36 0 -29 -16 -36 -85 -36
l-53 0 6 45 c4 42 3 45 -18 45 -21 0 -22 -3 -18 -45 6 -45 5 -45 -25 -45 -24
0 -28 3 -19 12 16 16 16 88 0 89 -7 1 -2 4 12 8 14 4 26 4 28 -1 2 -4 13 -3
23 3z m-346 -81 c8 -13 -4 -50 -16 -50 -6 0 -7 5 -3 11 3 6 1 15 -6 19 -7 4
-9 13 -6 19 9 14 23 14 31 1z"/>
<path d="M1185 601 c-6 -21 10 -71 24 -71 14 0 23 35 15 64 -7 30 -30 34 -39
7z"/>
<path d="M1643 604 c-7 -20 8 -67 22 -68 6 -1 11 18 13 42 2 33 0 42 -13 42
-8 0 -18 -7 -22 -16z"/>
</g>
</svg>
