<?xml version="1.0" standalone="no"?>
<!DOCTYPE svg PUBLIC "-//W3C//DTD SVG 20010904//EN"
 "http://www.w3.org/TR/2001/REC-SVG-20010904/DTD/svg10.dtd">
<svg version="1.0" xmlns="http://www.w3.org/2000/svg"
 width="225.000000pt" height="225.000000pt" viewBox="0 0 225.000000 225.000000"
 preserveAspectRatio="xMidYMid meet">

<g transform="translate(0.000000,225.000000) scale(0.100000,-0.100000)"
fill="#000000" stroke="none">
<path d="M445 1485 c-5 -2 -22 -6 -37 -9 -39 -9 -88 -54 -109 -101 -14 -30
-19 -65 -19 -142 l0 -103 100 0 100 0 2 -182 3 -183 110 0 c102 1 114 3 157
28 71 41 88 86 88 226 l0 112 43 -3 42 -3 3 -184 2 -184 108 5 c123 5 168 21
210 76 25 33 27 44 32 161 l5 126 123 3 122 3 -2 177 -3 177 -79 3 c-94 3
-167 -10 -207 -39 -51 -36 -64 -72 -69 -204 l-5 -120 -40 0 -40 0 -3 184 -2
184 -113 -5 c-126 -6 -161 -18 -201 -71 -32 -42 -45 -102 -46 -209 l0 -88 -40
0 -40 0 0 185 0 185 -92 -1 c-51 0 -97 -2 -103 -4z"/>
</g>
</svg>
